<?xml version="1.0" encoding="UTF-8" standalone="no"?>
<svg
   xmlns:dc="http://purl.org/dc/elements/1.1/"
   xmlns:cc="http://creativecommons.org/ns#"
   xmlns:rdf="http://www.w3.org/1999/02/22-rdf-syntax-ns#"
   xmlns:svg="http://www.w3.org/2000/svg"
   xmlns="http://www.w3.org/2000/svg"
   xmlns:sodipodi="http://sodipodi.sourceforge.net/DTD/sodipodi-0.dtd"
   xmlns:inkscape="http://www.inkscape.org/namespaces/inkscape"
   width="561"
   height="397"
   id="svg2"
   version="1.1"
   inkscape:version="0.46+devel r21714"
   sodipodi:docname="Parsing_Phase.svg"
   inkscape:output_extension="org.inkscape.output.svg.inkscape">
  <metadata
     id="metadata242">
    <rdf:RDF>
      <cc:Work
         rdf:about="">
        <dc:format>image/svg+xml</dc:format>
        <dc:type
           rdf:resource="http://purl.org/dc/dcmitype/StillImage" />
      </cc:Work>
    </rdf:RDF>
  </metadata>
  <sodipodi:namedview
     pagecolor="#ffffff"
     bordercolor="#666666"
     borderopacity="1"
     objecttolerance="10"
     gridtolerance="10"
     guidetolerance="10"
     inkscape:pageopacity="0"
     inkscape:pageshadow="2"
     inkscape:window-width="640"
     inkscape:window-height="484"
     id="namedview240"
     showgrid="false"
     inkscape:zoom="0.59445844"
     inkscape:cx="280.5"
     inkscape:cy="198.5"
     inkscape:window-x="0"
     inkscape:window-y="0"
     inkscape:window-maximized="0"
     inkscape:current-layer="svg2" />
  <defs
     id="defs4">
    <inkscape:perspective
       sodipodi:type="inkscape:persp3d"
       inkscape:vp_x="0 : 198.5 : 1"
       inkscape:vp_y="0 : 1000 : 0"
       inkscape:vp_z="561 : 198.5 : 1"
       inkscape:persp3d-origin="280.5 : 132.33333 : 1"
       id="perspective244" />
  </defs>
  <g
     transform="translate(75.0,220.5) rotate(0 50.0 37.5)"
     id="g8">
    <defs
       id="defs10">
      <linearGradient
         id="g0"
         x1="50%"
         y1="-25%"
         x2="50%"
         y2="100%">
        <stop
           stop-color="white"
           offset="0%"
           id="stop13" />
        <stop
           stop-color="#d1d1d1"
           offset="100%"
           id="stop15" />
      </linearGradient>
    </defs>
    <g
       transform="translate(4.0,4.0)"
       id="g17">
      <path
         d="M100.0,0 L100.0,75.0 Q75.0,56.25 50.0,75.0 Q25.0,93.75 0,75.0 L0,0 Q25.0,18.75 50.0,0 Q75.0,-18.75 100.0,0 Z"
         stroke="#A8A8A8"
         stroke-width="0"
         stroke-opacity=".6"
         fill-opacity=".6"
         fill="#A8A8A8"
         id="path19" />
    </g>
    <path
       d="M100.0,0 L100.0,75.0 Q75.0,56.25 50.0,75.0 Q25.0,93.75 0,75.0 L0,0 Q25.0,18.75 50.0,0 Q75.0,-18.75 100.0,0 Z"
       stroke="#333333"
       stroke-width="2"
       style="fill:url(#g0)"
       id="path21" />
    <g
       transform="translate(0.0,34.5)"
       id="g23">
      <text
         text-rendering="auto"
         font-size="12px"
         x="50.0"
         style="text-anchor: middle"
         y="-2.0"
         id="text25">
        <tspan
           id="tspan27">
          <tspan
             font-size="12"
             font-family="Arial"
             fill="#000000"
             id="tspan29">Unparsed</tspan>
        </tspan>
      </text>
      <text
         text-rendering="auto"
         font-size="12px"
         x="50.0"
         style="text-anchor: middle"
         y="12.8"
         id="text31">
        <tspan
           id="tspan33">
          <tspan
             font-size="12"
             font-family="Arial"
             fill="#000000"
             id="tspan35"> Sentences</tspan>
        </tspan>
      </text>
    </g>
  </g>
  <g
     transform="translate(93.0,90.5) rotate(0 50.0 37.5)"
     id="g37">
    <defs
       id="defs39">
      <linearGradient
         id="g1"
         x1="50%"
         y1="-25%"
         x2="50%"
         y2="100%">
        <stop
           stop-color="white"
           offset="0%"
           id="stop42" />
        <stop
           stop-color="#d1d1d1"
           offset="100%"
           id="stop44" />
      </linearGradient>
    </defs>
    <g
       transform="translate(4.0,4.0)"
       id="g46">
      <path
         d="M0,0 Q0,-9.375 50.0,-9.375 Q100.0,-9.375 100.0,0 L100.0,65.625 Q100.0,75.0 50.0,75.0 Q0,75.0 0,65.625 L0,0 Z"
         stroke="#A8A8A8"
         stroke-width="0"
         stroke-opacity=".6"
         fill-opacity=".6"
         fill="#A8A8A8"
         id="path48" />
    </g>
    <path
       d="M0,0 Q0,-9.375 50.0,-9.375 Q100.0,-9.375 100.0,0 L100.0,65.625 Q100.0,75.0 50.0,75.0 Q0,75.0 0,65.625 L0,0 Z"
       stroke="#333333"
       stroke-width="2"
       style="fill:url(#g1)"
       id="path50" />
    <path
       d="M0,0 Q0,9.375 50.0,9.375 Q100.0,9.375 100.0,0"
       stroke="#333333"
       stroke-width="2"
       fill="none"
       id="path52" />
    <path
       d="M0,4.6875 Q0,14.0625 50.0,14.0625 Q100.0,14.0625 100.0,4.6875"
       stroke="#333333"
       stroke-width="2"
       fill="none"
       id="path54" />
    <path
       d="M0,9.375 Q0,18.75 50.0,18.75 Q100.0,18.75 100.0,9.375 "
       stroke="#333333"
       stroke-width="2"
       fill="none"
       id="path56" />
    <g
       transform="translate(0.0,42.5)"
       id="g58">
      <text
         text-rendering="auto"
         font-size="12px"
         x="50.0"
         style="text-anchor: middle"
         y="-2.0"
         id="text60">
        <tspan
           id="tspan62">
          <tspan
             font-size="12"
             font-family="Arial"
             fill="#000000"
             id="tspan64">Constraints</tspan>
        </tspan>
      </text>
    </g>
  </g>
  <g
     transform="translate(217.0,220.5) rotate(0 50.0 37.5)"
     id="g66">
    <defs
       id="defs68">
      <linearGradient
         id="g2"
         x1="50%"
         y1="-25%"
         x2="50%"
         y2="100%">
        <stop
           stop-color="white"
           offset="0%"
           id="stop71" />
        <stop
           stop-color="#d1d1d1"
           offset="100%"
           id="stop73" />
      </linearGradient>
    </defs>
    <g
       transform="translate(4.0,4.0)"
       id="g75">
      <rect
         width="100.0"
         height="75.0"
         stroke="#A8A8A8"
         stroke-width="0"
         stroke-opacity=".6"
         fill-opacity=".6"
         fill="#A8A8A8"
         id="rect77" />
    </g>
    <rect
       width="100.0"
       height="75.0"
       stroke="#333333"
       stroke-width="2"
       style="fill:url(#g2)"
       id="rect79" />
    <g
       transform="translate(0.0,42.5)"
       id="g81">
      <text
         text-rendering="auto"
         font-size="12px"
         x="50.0"
         style="text-anchor: middle"
         y="-2.0"
         id="text83">
        <tspan
           id="tspan85">
          <tspan
             font-size="12"
             font-family="Arial"
             fill="#000000"
             id="tspan87">Derivation</tspan>
        </tspan>
      </text>
    </g>
  </g>
  <g
     transform="translate(143.0,165.5)"
     id="g89">
    <line
       x1="0.0"
       y1="0.0"
       x2="0.0"
       y2="15.0"
       stroke-dasharray="23, 0"
       stroke="#333333"
       stroke-width="2"
       id="line91" />
    <line
       x1="0.0"
       y1="15.0"
       x2="124.0"
       y2="15.0"
       stroke-dasharray="23, 0"
       stroke="#333333"
       stroke-width="2"
       id="line93" />
    <line
       x1="124.0"
       y1="15.0"
       x2="124.0"
       y2="55.0"
       stroke-dasharray="23, 0"
       stroke="#333333"
       stroke-width="2"
       id="line95" />
    <g
       transform="translate(124.0,55.0) rotate(270.0)"
       id="g97">
      <polygon
         points="1,0 7.0,-3.0 7.0,3.0"
         fill="#333333"
         stroke="#333333"
         stroke-width="2"
         id="polygon99" />
    </g>
    <g
       transform="translate(62.0,15.0)"
       id="g101" />
  </g>
  <g
     transform="translate(175.0,258.0)"
     id="g103">
    <line
       x1="0.0"
       y1="0.0"
       x2="42.0"
       y2="0.0"
       stroke-dasharray="23, 0"
       stroke="#333333"
       stroke-width="2"
       id="line105" />
    <g
       transform="translate(42.0,0.0) rotate(180.0)"
       id="g107">
      <polygon
         points="1,0 7.0,-3.0 7.0,3.0"
         fill="#333333"
         stroke="#333333"
         stroke-width="2"
         id="polygon109" />
    </g>
    <g
       transform="translate(21.0,0.0)"
       id="g111" />
  </g>
  <g
     transform="translate(346.0,76.0) rotate(0 45.0 45.0)"
     id="g113">
    <defs
       id="defs115">
      <linearGradient
         id="g5"
         x1="50%"
         y1="-25%"
         x2="50%"
         y2="100%">
        <stop
           stop-color="white"
           offset="0%"
           id="stop118" />
        <stop
           stop-color="#d1d1d1"
           offset="100%"
           id="stop120" />
      </linearGradient>
    </defs>
    <g
       transform="translate(4.0,4.0)"
       id="g122">
      <polygon
         points="15.0,0 105.0,0 75.0,90.0 -15.0,90.0"
         stroke="#A8A8A8"
         stroke-width="0"
         stroke-opacity=".6"
         fill-opacity=".6"
         fill="#A8A8A8"
         id="polygon124" />
    </g>
    <polygon
       points="15.0,0 105.0,0 75.0,90.0 -15.0,90.0"
       stroke="#333333"
       stroke-width="2"
       style="fill:url(#g5)"
       id="polygon126" />
    <g
       transform="translate(0.0,42.0)"
       id="g128">
      <text
         text-rendering="auto"
         font-size="12px"
         x="45.0"
         style="text-anchor: middle"
         y="-2.0"
         id="text130">
        <tspan
           id="tspan132">
          <tspan
             font-size="12"
             font-family="Arial"
             fill="#000000"
             id="tspan134">Learned</tspan>
        </tspan>
      </text>
      <text
         text-rendering="auto"
         font-size="12px"
         x="45.0"
         style="text-anchor: middle"
         y="12.8"
         id="text136">
        <tspan
           id="tspan138">
          <tspan
             font-size="12"
             font-family="Arial"
             fill="#000000"
             id="tspan140">Parameters</tspan>
        </tspan>
      </text>
    </g>
  </g>
  <g
     transform="translate(216.0,90.5) rotate(0 50.0 37.5)"
     id="g142">
    <defs
       id="defs144">
      <linearGradient
         id="g6"
         x1="50%"
         y1="-25%"
         x2="50%"
         y2="100%">
        <stop
           stop-color="white"
           offset="0%"
           id="stop147" />
        <stop
           stop-color="#d1d1d1"
           offset="100%"
           id="stop149" />
      </linearGradient>
    </defs>
    <g
       transform="translate(4.0,4.0)"
       id="g151">
      <path
         d="M0,0 Q0,-9.375 50.0,-9.375 Q100.0,-9.375 100.0,0 L100.0,65.625 Q100.0,75.0 50.0,75.0 Q0,75.0 0,65.625 L0,0 Z"
         stroke="#A8A8A8"
         stroke-width="0"
         stroke-opacity=".6"
         fill-opacity=".6"
         fill="#A8A8A8"
         id="path153" />
    </g>
    <path
       d="M0,0 Q0,-9.375 50.0,-9.375 Q100.0,-9.375 100.0,0 L100.0,65.625 Q100.0,75.0 50.0,75.0 Q0,75.0 0,65.625 L0,0 Z"
       stroke="#333333"
       stroke-width="2"
       style="fill:url(#g6)"
       id="path155" />
    <path
       d="M0,0 Q0,9.375 50.0,9.375 Q100.0,9.375 100.0,0"
       stroke="#333333"
       stroke-width="2"
       fill="none"
       id="path157" />
    <path
       d="M0,4.6875 Q0,14.0625 50.0,14.0625 Q100.0,14.0625 100.0,4.6875"
       stroke="#333333"
       stroke-width="2"
       fill="none"
       id="path159" />
    <path
       d="M0,9.375 Q0,18.75 50.0,18.75 Q100.0,18.75 100.0,9.375 "
       stroke="#333333"
       stroke-width="2"
       fill="none"
       id="path161" />
    <g
       transform="translate(0.0,42.5)"
       id="g163">
      <text
         text-rendering="auto"
         font-size="12px"
         x="50.0"
         style="text-anchor: middle"
         y="-2.0"
         id="text165">
        <tspan
           id="tspan167">
          <tspan
             font-size="12"
             font-family="Arial"
             fill="#000000"
             id="tspan169">Algorith</tspan>
          <tspan
             font-size="12"
             font-family="Arial"
             fill="#000000"
             id="tspan171">m</tspan>
        </tspan>
      </text>
    </g>
  </g>
  <g
     transform="translate(267.0,165.5)"
     id="g173">
    <line
       x1="0.0"
       y1="0.0"
       x2="0.0"
       y2="55.0"
       stroke-dasharray="23, 0"
       stroke="#333333"
       stroke-width="2"
       id="line175" />
    <g
       transform="translate(0.0,55.0) rotate(270.0)"
       id="g177">
      <polygon
         points="1,0 7.0,-3.0 7.0,3.0"
         fill="#333333"
         stroke="#333333"
         stroke-width="2"
         id="polygon179" />
    </g>
    <g
       transform="translate(0.0,27.5)"
       id="g181" />
  </g>
  <g
     transform="translate(391.0,166.0)"
     id="g183">
    <line
       x1="0.0"
       y1="0.0"
       x2="0.0"
       y2="15.0"
       stroke-dasharray="23, 0"
       stroke="#333333"
       stroke-width="2"
       id="line185" />
    <line
       x1="0.0"
       y1="15.0"
       x2="-124.0"
       y2="15.0"
       stroke-dasharray="23, 0"
       stroke="#333333"
       stroke-width="2"
       id="line187" />
    <line
       x1="-124.0"
       y1="15.0"
       x2="-124.0"
       y2="54.5"
       stroke-dasharray="23, 0"
       stroke="#333333"
       stroke-width="2"
       id="line189" />
    <g
       transform="translate(-124.0,54.5) rotate(270.0)"
       id="g191">
      <polygon
         points="1,0 7.0,-3.0 7.0,3.0"
         fill="#333333"
         stroke="#333333"
         stroke-width="2"
         id="polygon193" />
    </g>
    <g
       transform="translate(-62.0,15.0)"
       id="g195" />
  </g>
  <g
     transform="translate(361.0,220.5) rotate(0 50.0 37.5)"
     id="g197">
    <defs
       id="defs199">
      <linearGradient
         id="g9"
         x1="50%"
         y1="-25%"
         x2="50%"
         y2="100%">
        <stop
           stop-color="white"
           offset="0%"
           id="stop202" />
        <stop
           stop-color="#d1d1d1"
           offset="100%"
           id="stop204" />
      </linearGradient>
    </defs>
    <g
       transform="translate(4.0,4.0)"
       id="g206">
      <path
         d="M100.0,0 L100.0,75.0 Q75.0,56.25 50.0,75.0 Q25.0,93.75 0,75.0 L0,0 Q25.0,18.75 50.0,0 Q75.0,-18.75 100.0,0 Z"
         stroke="#A8A8A8"
         stroke-width="0"
         stroke-opacity=".6"
         fill-opacity=".6"
         fill="#A8A8A8"
         id="path208" />
    </g>
    <path
       d="M100.0,0 L100.0,75.0 Q75.0,56.25 50.0,75.0 Q25.0,93.75 0,75.0 L0,0 Q25.0,18.75 50.0,0 Q75.0,-18.75 100.0,0 Z"
       stroke="#333333"
       stroke-width="2"
       style="fill:url(#g9)"
       id="path210" />
    <g
       transform="translate(0.0,34.5)"
       id="g212">
      <text
         text-rendering="auto"
         font-size="12px"
         x="50.0"
         style="text-anchor: middle"
         y="-2.0"
         id="text214">
        <tspan
           id="tspan216">
          <tspan
             font-size="12"
             font-family="Arial"
             fill="#000000"
             font-weight="bold"
             id="tspan218">Parsed</tspan>
        </tspan>
      </text>
      <text
         text-rendering="auto"
         font-size="12px"
         x="50.0"
         style="text-anchor: middle"
         y="12.8"
         id="text220">
        <tspan
           id="tspan222">
          <tspan
             font-size="12"
             font-family="Arial"
             fill="#000000"
             id="tspan224">Sentences</tspan>
        </tspan>
      </text>
    </g>
  </g>
  <g
     transform="translate(317.0,258.0)"
     id="g226">
    <line
       x1="0.0"
       y1="0.0"
       x2="29.0"
       y2="0.0"
       stroke-dasharray="23, 0"
       stroke="#333333"
       stroke-width="2"
       id="line228" />
    <line
       x1="29.0"
       y1="0.0"
       x2="29.0"
       y2="0.0"
       stroke-dasharray="23, 0"
       stroke="#333333"
       stroke-width="2"
       id="line230" />
    <line
       x1="29.0"
       y1="0.0"
       x2="44.0"
       y2="0.0"
       stroke-dasharray="23, 0"
       stroke="#333333"
       stroke-width="2"
       id="line232" />
    <g
       transform="translate(44.0,0.0) rotate(180.0)"
       id="g234">
      <polygon
         points="1,0 7.0,-3.0 7.0,3.0"
         fill="#333333"
         stroke="#333333"
         stroke-width="2"
         id="polygon236" />
    </g>
    <g
       transform="translate(14.5,0.0)"
       id="g238" />
  </g>
</svg>
