<?xml version="1.0" encoding="UTF-8" standalone="no"?>
<svg
   xmlns:dc="http://purl.org/dc/elements/1.1/"
   xmlns:cc="http://creativecommons.org/ns#"
   xmlns:rdf="http://www.w3.org/1999/02/22-rdf-syntax-ns#"
   xmlns:svg="http://www.w3.org/2000/svg"
   xmlns="http://www.w3.org/2000/svg"
   xmlns:sodipodi="http://sodipodi.sourceforge.net/DTD/sodipodi-0.dtd"
   xmlns:inkscape="http://www.inkscape.org/namespaces/inkscape"
   width="486"
   height="526"
   id="svg2"
   version="1.1"
   inkscape:version="0.46+devel r21714"
   sodipodi:docname="Training_Phase.svg"
   inkscape:output_extension="org.inkscape.output.svg.inkscape">
  <metadata
     id="metadata203">
    <rdf:RDF>
      <cc:Work
         rdf:about="">
        <dc:format>image/svg+xml</dc:format>
        <dc:type
           rdf:resource="http://purl.org/dc/dcmitype/StillImage" />
      </cc:Work>
    </rdf:RDF>
  </metadata>
  <sodipodi:namedview
     pagecolor="#ffffff"
     bordercolor="#666666"
     borderopacity="1"
     objecttolerance="10"
     gridtolerance="10"
     guidetolerance="10"
     inkscape:pageopacity="0"
     inkscape:pageshadow="2"
     inkscape:window-width="640"
     inkscape:window-height="484"
     id="namedview201"
     showgrid="false"
     inkscape:zoom="0.4486692"
     inkscape:cx="243"
     inkscape:cy="263"
     inkscape:window-x="0"
     inkscape:window-y="0"
     inkscape:window-maximized="0"
     inkscape:current-layer="svg2" />
  <defs
     id="defs4">
    <inkscape:perspective
       sodipodi:type="inkscape:persp3d"
       inkscape:vp_x="0 : 263 : 1"
       inkscape:vp_y="0 : 1000 : 0"
       inkscape:vp_z="486 : 263 : 1"
       inkscape:persp3d-origin="243 : 175.33333 : 1"
       id="perspective205" />
  </defs>
  <g
     transform="translate(75.0,220.5) rotate(0 50.0 37.5)"
     id="g8">
    <defs
       id="defs10">
      <linearGradient
         id="g0"
         x1="50%"
         y1="-25%"
         x2="50%"
         y2="100%">
        <stop
           stop-color="white"
           offset="0%"
           id="stop13" />
        <stop
           stop-color="#d1d1d1"
           offset="100%"
           id="stop15" />
      </linearGradient>
    </defs>
    <g
       transform="translate(4.0,4.0)"
       id="g17">
      <path
         d="M100.0,0 L100.0,75.0 Q75.0,56.25 50.0,75.0 Q25.0,93.75 0,75.0 L0,0 Q25.0,18.75 50.0,0 Q75.0,-18.75 100.0,0 Z"
         stroke="#A8A8A8"
         stroke-width="0"
         stroke-opacity=".6"
         fill-opacity=".6"
         fill="#A8A8A8"
         id="path19" />
    </g>
    <path
       d="M100.0,0 L100.0,75.0 Q75.0,56.25 50.0,75.0 Q25.0,93.75 0,75.0 L0,0 Q25.0,18.75 50.0,0 Q75.0,-18.75 100.0,0 Z"
       stroke="#333333"
       stroke-width="2"
       style="fill:url(#g0)"
       id="path21" />
    <g
       transform="translate(0.0,27.5)"
       id="g23">
      <text
         text-rendering="auto"
         font-size="12px"
         x="50.0"
         style="text-anchor: middle"
         y="-2.0"
         id="text25">
        <tspan
           id="tspan27">
          <tspan
             font-size="12"
             font-family="Arial"
             fill="#000000"
             id="tspan29">Parsed</tspan>
        </tspan>
      </text>
      <text
         text-rendering="auto"
         font-size="12px"
         x="50.0"
         style="text-anchor: middle"
         y="12.8"
         id="text31">
        <tspan
           id="tspan33">
          <tspan
             font-size="12"
             font-family="Arial"
             fill="#000000"
             font-weight="bold"
             id="tspan35">Training</tspan>
        </tspan>
      </text>
      <text
         text-rendering="auto"
         font-size="12px"
         x="50.0"
         style="text-anchor: middle"
         y="27.6"
         id="text37">
        <tspan
           id="tspan39">
          <tspan
             font-size="12"
             font-family="Arial"
             fill="#000000"
             id="tspan41">Sentences</tspan>
        </tspan>
      </text>
    </g>
  </g>
  <g
     transform="translate(146.0,95.5) rotate(0 50.0 37.5)"
     id="g43">
    <defs
       id="defs45">
      <linearGradient
         id="g1"
         x1="50%"
         y1="-25%"
         x2="50%"
         y2="100%">
        <stop
           stop-color="white"
           offset="0%"
           id="stop48" />
        <stop
           stop-color="#d1d1d1"
           offset="100%"
           id="stop50" />
      </linearGradient>
    </defs>
    <g
       transform="translate(4.0,4.0)"
       id="g52">
      <path
         d="M0,0 Q0,-9.375 50.0,-9.375 Q100.0,-9.375 100.0,0 L100.0,65.625 Q100.0,75.0 50.0,75.0 Q0,75.0 0,65.625 L0,0 Z"
         stroke="#A8A8A8"
         stroke-width="0"
         stroke-opacity=".6"
         fill-opacity=".6"
         fill="#A8A8A8"
         id="path54" />
    </g>
    <path
       d="M0,0 Q0,-9.375 50.0,-9.375 Q100.0,-9.375 100.0,0 L100.0,65.625 Q100.0,75.0 50.0,75.0 Q0,75.0 0,65.625 L0,0 Z"
       stroke="#333333"
       stroke-width="2"
       style="fill:url(#g1)"
       id="path56" />
    <path
       d="M0,0 Q0,9.375 50.0,9.375 Q100.0,9.375 100.0,0"
       stroke="#333333"
       stroke-width="2"
       fill="none"
       id="path58" />
    <path
       d="M0,4.6875 Q0,14.0625 50.0,14.0625 Q100.0,14.0625 100.0,4.6875"
       stroke="#333333"
       stroke-width="2"
       fill="none"
       id="path60" />
    <path
       d="M0,9.375 Q0,18.75 50.0,18.75 Q100.0,18.75 100.0,9.375 "
       stroke="#333333"
       stroke-width="2"
       fill="none"
       id="path62" />
    <g
       transform="translate(0.0,42.5)"
       id="g64">
      <text
         text-rendering="auto"
         font-size="12px"
         x="50.0"
         style="text-anchor: middle"
         y="-2.0"
         id="text66">
        <tspan
           id="tspan68">
          <tspan
             font-size="12"
             font-family="Arial"
             fill="#000000"
             id="tspan70">Constraints</tspan>
        </tspan>
      </text>
    </g>
  </g>
  <g
     transform="translate(217.0,220.5) rotate(0 50.0 37.5)"
     id="g72">
    <defs
       id="defs74">
      <linearGradient
         id="g2"
         x1="50%"
         y1="-25%"
         x2="50%"
         y2="100%">
        <stop
           stop-color="white"
           offset="0%"
           id="stop77" />
        <stop
           stop-color="#d1d1d1"
           offset="100%"
           id="stop79" />
      </linearGradient>
    </defs>
    <g
       transform="translate(4.0,4.0)"
       id="g81">
      <rect
         width="100.0"
         height="75.0"
         stroke="#A8A8A8"
         stroke-width="0"
         stroke-opacity=".6"
         fill-opacity=".6"
         fill="#A8A8A8"
         id="rect83" />
    </g>
    <rect
       width="100.0"
       height="75.0"
       stroke="#333333"
       stroke-width="2"
       style="fill:url(#g2)"
       id="rect85" />
    <g
       transform="translate(0.0,42.5)"
       id="g87">
      <text
         text-rendering="auto"
         font-size="12px"
         x="50.0"
         style="text-anchor: middle"
         y="-2.0"
         id="text89">
        <tspan
           id="tspan91">
          <tspan
             font-size="12"
             font-family="Arial"
             fill="#000000"
             id="tspan93">Induction</tspan>
        </tspan>
      </text>
    </g>
  </g>
  <g
     transform="translate(196.0,170.5)"
     id="g95">
    <line
       x1="0.0"
       y1="0.0"
       x2="0.0"
       y2="15.0"
       stroke-dasharray="23, 0"
       stroke="#333333"
       stroke-width="2"
       id="line97" />
    <line
       x1="0.0"
       y1="15.0"
       x2="71.0"
       y2="15.0"
       stroke-dasharray="23, 0"
       stroke="#333333"
       stroke-width="2"
       id="line99" />
    <line
       x1="71.0"
       y1="15.0"
       x2="71.0"
       y2="50.0"
       stroke-dasharray="23, 0"
       stroke="#333333"
       stroke-width="2"
       id="line101" />
    <g
       transform="translate(71.0,50.0) rotate(270.0)"
       id="g103">
      <polygon
         points="1,0 7.0,-3.0 7.0,3.0"
         fill="#333333"
         stroke="#333333"
         stroke-width="2"
         id="polygon105" />
    </g>
    <g
       transform="translate(35.5,15.0)"
       id="g107" />
  </g>
  <g
     transform="translate(175.0,258.0)"
     id="g109">
    <line
       x1="0.0"
       y1="0.0"
       x2="42.0"
       y2="0.0"
       stroke-dasharray="23, 0"
       stroke="#333333"
       stroke-width="2"
       id="line111" />
    <g
       transform="translate(42.0,0.0) rotate(180.0)"
       id="g113">
      <polygon
         points="1,0 7.0,-3.0 7.0,3.0"
         fill="#333333"
         stroke="#333333"
         stroke-width="2"
         id="polygon115" />
    </g>
    <g
       transform="translate(21.0,0.0)"
       id="g117" />
  </g>
  <g
     transform="translate(221.0,335.0) rotate(0 45.0 45.0)"
     id="g119">
    <defs
       id="defs121">
      <linearGradient
         id="g5"
         x1="50%"
         y1="-25%"
         x2="50%"
         y2="100%">
        <stop
           stop-color="white"
           offset="0%"
           id="stop124" />
        <stop
           stop-color="#d1d1d1"
           offset="100%"
           id="stop126" />
      </linearGradient>
    </defs>
    <g
       transform="translate(4.0,4.0)"
       id="g128">
      <polygon
         points="15.0,0 105.0,0 75.0,90.0 -15.0,90.0"
         stroke="#A8A8A8"
         stroke-width="0"
         stroke-opacity=".6"
         fill-opacity=".6"
         fill="#A8A8A8"
         id="polygon130" />
    </g>
    <polygon
       points="15.0,0 105.0,0 75.0,90.0 -15.0,90.0"
       stroke="#333333"
       stroke-width="2"
       style="fill:url(#g5)"
       id="polygon132" />
    <g
       transform="translate(0.0,42.0)"
       id="g134">
      <text
         text-rendering="auto"
         font-size="12px"
         x="45.0"
         style="text-anchor: middle"
         y="-2.0"
         id="text136">
        <tspan
           id="tspan138">
          <tspan
             font-size="12"
             font-family="Arial"
             fill="#000000"
             id="tspan140">Learned</tspan>
        </tspan>
      </text>
      <text
         text-rendering="auto"
         font-size="12px"
         x="45.0"
         style="text-anchor: middle"
         y="12.8"
         id="text142">
        <tspan
           id="tspan144">
          <tspan
             font-size="12"
             font-family="Arial"
             fill="#000000"
             font-weight="bold"
             id="tspan146">Parameters</tspan>
        </tspan>
      </text>
    </g>
  </g>
  <g
     transform="translate(286.0,95.5) rotate(0 50.0 37.5)"
     id="g148">
    <defs
       id="defs150">
      <linearGradient
         id="g6"
         x1="50%"
         y1="-25%"
         x2="50%"
         y2="100%">
        <stop
           stop-color="white"
           offset="0%"
           id="stop153" />
        <stop
           stop-color="#d1d1d1"
           offset="100%"
           id="stop155" />
      </linearGradient>
    </defs>
    <g
       transform="translate(4.0,4.0)"
       id="g157">
      <path
         d="M0,0 Q0,-9.375 50.0,-9.375 Q100.0,-9.375 100.0,0 L100.0,65.625 Q100.0,75.0 50.0,75.0 Q0,75.0 0,65.625 L0,0 Z"
         stroke="#A8A8A8"
         stroke-width="0"
         stroke-opacity=".6"
         fill-opacity=".6"
         fill="#A8A8A8"
         id="path159" />
    </g>
    <path
       d="M0,0 Q0,-9.375 50.0,-9.375 Q100.0,-9.375 100.0,0 L100.0,65.625 Q100.0,75.0 50.0,75.0 Q0,75.0 0,65.625 L0,0 Z"
       stroke="#333333"
       stroke-width="2"
       style="fill:url(#g6)"
       id="path161" />
    <path
       d="M0,0 Q0,9.375 50.0,9.375 Q100.0,9.375 100.0,0"
       stroke="#333333"
       stroke-width="2"
       fill="none"
       id="path163" />
    <path
       d="M0,4.6875 Q0,14.0625 50.0,14.0625 Q100.0,14.0625 100.0,4.6875"
       stroke="#333333"
       stroke-width="2"
       fill="none"
       id="path165" />
    <path
       d="M0,9.375 Q0,18.75 50.0,18.75 Q100.0,18.75 100.0,9.375 "
       stroke="#333333"
       stroke-width="2"
       fill="none"
       id="path167" />
    <g
       transform="translate(0.0,42.5)"
       id="g169">
      <text
         text-rendering="auto"
         font-size="12px"
         x="50.0"
         style="text-anchor: middle"
         y="-2.0"
         id="text171">
        <tspan
           id="tspan173">
          <tspan
             font-size="12"
             font-family="Arial"
             fill="#000000"
             id="tspan175">Algorithm</tspan>
        </tspan>
      </text>
    </g>
  </g>
  <g
     transform="translate(336.0,170.5)"
     id="g177">
    <line
       x1="0.0"
       y1="0.0"
       x2="0.0"
       y2="15.0"
       stroke-dasharray="23, 0"
       stroke="#333333"
       stroke-width="2"
       id="line179" />
    <line
       x1="0.0"
       y1="15.0"
       x2="-69.0"
       y2="15.0"
       stroke-dasharray="23, 0"
       stroke="#333333"
       stroke-width="2"
       id="line181" />
    <line
       x1="-69.0"
       y1="15.0"
       x2="-69.0"
       y2="50.0"
       stroke-dasharray="23, 0"
       stroke="#333333"
       stroke-width="2"
       id="line183" />
    <g
       transform="translate(-69.0,50.0) rotate(270.0)"
       id="g185">
      <polygon
         points="1,0 7.0,-3.0 7.0,3.0"
         fill="#333333"
         stroke="#333333"
         stroke-width="2"
         id="polygon187" />
    </g>
    <g
       transform="translate(-34.5,15.0)"
       id="g189" />
  </g>
  <g
     transform="translate(266.0,335.0)"
     id="g191">
    <line
       x1="1.0"
       y1="0.0"
       x2="1.0"
       y2="-39.5"
       stroke-dasharray="23, 0"
       stroke="#333333"
       stroke-width="2"
       id="line193" />
    <g
       transform="translate(1.0,0.0) rotate(-90.0)"
       id="g195">
      <polygon
         points="1,0 7.0,-3.0 7.0,3.0"
         fill="#333333"
         stroke="#333333"
         stroke-width="2"
         id="polygon197" />
    </g>
    <g
       transform="translate(1.0,-19.75)"
       id="g199" />
  </g>
</svg>
